<?xml version="1.0" standalone="no"?>
<!DOCTYPE svg PUBLIC "-//W3C//DTD SVG 20010904//EN"
 "http://www.w3.org/TR/2001/REC-SVG-20010904/DTD/svg10.dtd">
<svg version="1.0" xmlns="http://www.w3.org/2000/svg"
 width="83.000000pt" height="88.000000pt" viewBox="0 0 83.000000 88.000000"
 preserveAspectRatio="xMidYMid meet">

<g transform="translate(0.000000,88.000000) scale(0.100000,-0.100000)"
fill="#000000" stroke="none">
<path d="M0 700 c0 -99 2 -180 5 -180 2 0 9 19 16 42 28 106 144 221 261 260
63 21 197 24 248 5 153 -56 266 -183 289 -327 6 -41 9 -1 10 163 l1 217 -415
0 -415 0 0 -180z"/>
<path d="M278 800 c-107 -44 -175 -106 -224 -206 -26 -54 -29 -68 -29 -164 0
-112 8 -141 64 -225 31 -48 35 -52 86 -90 49 -38 74 -49 147 -69 71 -20 105
-20 181 0 86 22 133 49 189 106 57 59 80 100 102 186 20 79 20 105 0 183 -21
83 -62 150 -124 207 -93 85 -277 119 -392 72z m242 -50 c0 -5 -4 -10 -10 -10
-5 0 -10 -13 -10 -28 0 -26 5 -29 57 -43 44 -11 63 -23 87 -53 l31 -38 0 -136
c0 -120 -3 -141 -20 -172 -31 -52 -83 -73 -182 -74 -66 -1 -83 -4 -84 -16 -1
-8 -2 -22 -3 -30 -3 -35 -157 3 -197 48 -36 40 -47 64 -64 137 -22 97 -2 135
105 198 25 14 65 47 90 72 33 34 58 49 102 61 53 15 58 19 58 45 0 19 -5 29
-15 29 -8 0 -15 5 -15 10 0 6 16 10 35 10 19 0 35 -4 35 -10z"/>
<path d="M504 645 c-10 -25 4 -45 32 -45 16 0 39 -13 61 -35 l36 -36 -5 -89
c-5 -78 -9 -95 -32 -125 -42 -54 -127 -81 -176 -55 -13 7 -21 6 -30 -5 -22
-26 0 -35 86 -35 138 0 165 24 183 164 18 130 -10 233 -68 255 -54 20 -81 22
-87 6z"/>
<path d="M375 625 c-20 -14 -48 -39 -61 -55 -14 -16 -50 -43 -80 -61 -80 -46
-94 -64 -94 -123 0 -81 40 -170 90 -196 33 -17 121 -40 132 -34 30 19 -14 64
-63 64 -58 0 -111 55 -117 122 -6 63 12 90 88 128 34 17 78 46 99 65 21 19 55
42 75 50 28 12 36 21 36 40 0 22 -4 25 -34 25 -19 0 -49 -11 -71 -25z"/>
<path d="M500 550 c0 -16 7 -35 16 -42 80 -64 89 -89 51 -134 -19 -21 -29 -26
-49 -21 -23 6 -27 13 -33 67 -4 33 -10 60 -14 60 -4 0 -22 -11 -41 -25 -18
-13 -49 -30 -69 -36 -55 -18 -91 -42 -91 -60 0 -19 57 -59 84 -59 13 0 16 5
11 23 -4 12 -9 30 -11 40 -4 13 1 17 20 17 25 0 35 -13 17 -24 -5 -3 -6 -20
-2 -38 7 -33 7 -33 71 -36 75 -4 102 8 123 52 62 126 32 246 -63 246 -16 0
-20 -6 -20 -30z"/>
<path d="M390 524 c-30 -25 -80 -57 -110 -72 -71 -35 -98 -78 -79 -125 19 -48
48 -76 88 -83 20 -4 43 -10 52 -15 12 -6 18 -4 21 9 7 24 -1 42 -18 42 -19 0
-94 50 -95 64 -5 41 24 70 85 88 37 11 82 33 96 48 3 3 14 10 25 16 12 7 21
24 23 43 5 45 -21 41 -88 -15z"/>
<path d="M508 475 c-9 -9 4 -99 16 -107 6 -4 19 6 30 23 19 30 19 31 -1 57
-20 27 -35 36 -45 27z"/>
<path d="M817 373 c-2 -38 -12 -81 -21 -98 -9 -16 -16 -36 -16 -42 0 -7 -4
-13 -10 -13 -5 0 -10 -6 -10 -13 0 -19 -109 -119 -157 -145 -165 -88 -349 -59
-484 78 -32 31 -66 77 -76 101 -11 24 -24 55 -31 69 -8 20 -11 -11 -11 -142
l-1 -168 415 0 415 0 0 220 c0 121 -2 220 -4 220 -2 0 -6 -30 -9 -67z"/>
</g>
</svg>
