<?xml version="1.0" standalone="no"?>
<!DOCTYPE svg PUBLIC "-//W3C//DTD SVG 20010904//EN"
 "http://www.w3.org/TR/2001/REC-SVG-20010904/DTD/svg10.dtd">
<svg version="1.0" xmlns="http://www.w3.org/2000/svg"
 width="90.000000pt" height="94.000000pt" viewBox="0 0 90.000000 94.000000"
 preserveAspectRatio="xMidYMid meet">

<g transform="translate(0.000000,94.000000) scale(0.100000,-0.100000)"
fill="#000000" stroke="none">
<path d="M0 470 l0 -470 450 0 450 0 0 470 0 470 -450 0 -450 0 0 -470z m541
369 c52 -16 109 -43 109 -51 0 -5 6 -8 14 -8 25 0 117 -110 149 -178 28 -61
31 -76 31 -169 1 -69 -3 -106 -11 -114 -7 -7 -13 -20 -13 -28 -1 -33 -81 -141
-135 -182 -64 -48 -177 -89 -247 -89 -155 0 -312 101 -384 247 -26 53 -28 67
-28 168 -1 103 1 114 31 175 49 101 136 180 239 220 56 21 192 26 245 9z"/>
<path d="M310 814 c-129 -47 -233 -160 -259 -283 -32 -151 10 -286 120 -385
58 -52 93 -71 170 -91 73 -20 122 -19 197 4 160 49 263 165 282 318 23 181
-63 342 -220 416 -54 25 -80 31 -155 34 -65 2 -102 -1 -135 -13z m175 -42 c6
-4 22 -23 35 -42 24 -33 25 -43 28 -208 4 -154 2 -172 -12 -166 -9 3 -16 10
-16 15 0 10 -40 12 -62 4 -10 -4 -13 -31 -11 -113 1 -98 3 -108 22 -117 34
-16 24 -25 -29 -25 -27 0 -50 5 -50 10 0 6 7 10 15 10 20 0 27 33 23 110 -2
49 -7 65 -18 65 -9 0 -17 -16 -23 -45 -10 -54 -27 -91 -39 -84 -4 3 -3 15 4
27 6 12 12 51 12 87 0 54 -5 76 -32 127 -35 69 -43 141 -17 163 12 10 13 5 8
-38 -5 -42 -1 -60 24 -114 17 -34 33 -71 37 -81 3 -11 13 -17 23 -15 16 3 18
18 21 122 2 98 0 122 -13 137 -13 14 -14 22 -5 39 13 24 38 23 54 -2 8 -13 7
-23 -2 -39 -9 -13 -14 -54 -14 -108 l0 -86 37 0 37 0 -1 144 c-2 151 -7 172
-50 208 -17 15 -21 22 -11 22 8 1 20 -3 25 -7z"/>
<path d="M430 625 c0 -8 5 -15 10 -15 6 0 10 7 10 15 0 8 -4 15 -10 15 -5 0
-10 -7 -10 -15z"/>
</g>
</svg>
