<?xml version="1.0" standalone="no"?>
<!DOCTYPE svg PUBLIC "-//W3C//DTD SVG 20010904//EN"
 "http://www.w3.org/TR/2001/REC-SVG-20010904/DTD/svg10.dtd">
<svg version="1.0" xmlns="http://www.w3.org/2000/svg"
 width="92.000000pt" height="86.000000pt" viewBox="0 0 92.000000 86.000000"
 preserveAspectRatio="xMidYMid meet">

<g transform="translate(0.000000,86.000000) scale(0.100000,-0.100000)"
fill="#000000" stroke="none">
<path d="M0 430 l0 -430 460 0 460 0 0 430 0 430 -460 0 -460 0 0 -430z m586
394 c105 -42 159 -81 210 -151 69 -96 93 -197 75 -314 -20 -126 -109 -245
-226 -304 -57 -28 -67 -30 -180 -30 -111 0 -124 2 -177 28 -156 76 -245 229
-236 400 6 107 44 191 119 265 56 56 83 74 159 103 60 23 203 25 256 3z"/>
<path d="M340 804 c-113 -39 -209 -134 -245 -241 -30 -89 -27 -221 8 -293 54
-114 149 -194 265 -224 82 -21 123 -20 199 3 111 34 183 89 235 179 74 130 75
275 1 401 -32 56 -105 125 -153 147 -19 8 -44 20 -55 26 -34 19 -203 20 -255
2z m181 -89 c24 -9 54 -26 67 -38 34 -31 62 -90 62 -129 0 -24 10 -43 38 -73
77 -80 81 -164 11 -240 -62 -67 -120 -78 -206 -38 -30 14 -36 14 -67 -1 -47
-22 -101 -20 -153 6 -67 33 -88 69 -88 149 0 57 4 70 29 104 16 21 42 45 57
54 23 12 29 23 29 49 0 37 28 98 57 124 18 17 86 46 109 47 6 1 31 -6 55 -14z"/>
<path d="M425 694 c-22 -7 -41 -14 -42 -14 -2 0 -16 -19 -33 -42 -20 -27 -30
-53 -30 -77 0 -36 1 -36 45 -38 25 -1 59 -10 75 -19 25 -15 31 -16 46 -3 9 8
44 16 78 19 l61 5 -3 45 c-2 24 -6 47 -10 50 -4 3 -12 14 -18 25 -25 46 -109
70 -169 49z"/>
<path d="M337 503 c-4 -3 -7 -10 -7 -14 0 -11 60 -79 69 -79 8 0 41 54 41 67
0 18 -89 41 -103 26z"/>
<path d="M523 494 c-40 -17 -47 -28 -28 -44 8 -7 15 -19 15 -26 0 -33 50 -10
95 44 16 20 17 25 5 32 -20 13 -49 11 -87 -6z"/>
<path d="M258 471 c-45 -39 -62 -87 -53 -147 8 -56 43 -97 95 -113 41 -12 102
-8 129 9 12 7 12 12 -3 35 -9 14 -20 49 -23 78 -5 41 -13 59 -37 82 -17 17
-40 43 -51 59 l-21 29 -36 -32z"/>
<path d="M612 449 c-18 -21 -45 -45 -60 -54 -22 -14 -28 -25 -29 -56 -1 -22
-12 -56 -24 -76 -25 -40 -21 -46 42 -63 38 -11 82 -1 127 28 30 19 62 83 62
122 0 40 -32 103 -62 122 -23 15 -25 14 -56 -23z"/>
<path d="M446 438 c-23 -32 -20 -38 19 -38 l36 0 -16 30 c-19 36 -20 36 -39 8z"/>
<path d="M425 370 c-9 -15 4 -85 20 -106 10 -15 16 -16 27 -6 19 16 42 86 35
106 -7 18 -72 22 -82 6z"/>
</g>
</svg>
