<?xml version="1.0" standalone="no"?>
<!DOCTYPE svg PUBLIC "-//W3C//DTD SVG 20010904//EN"
 "http://www.w3.org/TR/2001/REC-SVG-20010904/DTD/svg10.dtd">
<svg version="1.0" xmlns="http://www.w3.org/2000/svg"
 width="84.000000pt" height="87.000000pt" viewBox="0 0 84.000000 87.000000"
 preserveAspectRatio="xMidYMid meet">

<g transform="translate(0.000000,87.000000) scale(0.100000,-0.100000)"
fill="#000000" stroke="none">
<path d="M1 663 c1 -136 4 -192 9 -162 20 115 120 241 236 296 53 24 70 27
169 28 106 0 113 -1 177 -34 160 -81 248 -234 235 -409 -12 -167 -121 -303
-286 -359 l-66 -22 183 0 182 -1 0 435 0 435 -420 0 -420 0 1 -207z"/>
<path d="M290 791 c-75 -29 -106 -48 -152 -94 -144 -144 -153 -382 -22 -535
79 -93 177 -136 304 -136 76 1 93 5 160 36 90 42 146 98 191 188 29 59 32 74
33 160 1 71 -4 108 -18 145 -43 112 -137 200 -253 238 -67 22 -183 21 -243 -2z
m170 -70 c0 -5 -9 -13 -20 -16 -18 -6 -20 -15 -20 -99 0 -140 21 -149 122 -49
55 55 65 69 57 85 -15 27 4 22 34 -10 31 -32 35 -47 9 -31 -15 9 -28 0 -89
-62 -58 -60 -70 -77 -62 -91 8 -15 24 -18 109 -18 84 0 101 3 109 18 8 13 10
6 10 -33 0 -43 -2 -47 -11 -27 -10 21 -17 22 -107 22 -86 0 -98 -2 -109 -20
-11 -19 -6 -28 55 -94 68 -74 87 -87 96 -63 2 6 8 9 12 4 11 -9 -45 -68 -57
-61 -5 3 -4 12 2 19 8 10 -2 27 -47 72 -84 85 -87 87 -112 71 -19 -11 -21 -22
-21 -106 0 -85 2 -94 20 -99 34 -9 22 -23 -20 -23 -38 0 -54 14 -28 22 8 3 13
36 15 101 2 89 1 98 -18 108 -18 9 -30 2 -93 -60 -54 -51 -70 -74 -64 -85 16
-28 -9 -25 -37 4 -28 29 -29 54 -2 32 11 -9 29 4 86 63 63 65 71 77 61 95 -10
18 -20 20 -109 20 -94 0 -99 -1 -105 -22 -5 -19 -8 -20 -15 -8 -12 22 -8 73 7
78 6 2 12 -3 12 -12 0 -14 16 -16 104 -16 95 0 104 2 109 20 4 15 -12 38 -64
90 -60 61 -72 69 -89 60 -30 -16 -25 6 8 35 32 29 46 32 33 7 -8 -16 2 -30 57
-85 99 -98 120 -90 116 48 -3 108 -2 105 -19 105 -8 0 -15 5 -15 10 0 6 20 10
45 10 25 0 45 -4 45 -9z"/>
<path d="M383 470 c-21 -9 -28 -29 -24 -70 3 -25 42 -51 65 -44 27 7 56 41 56
65 0 22 -38 59 -59 58 -9 0 -26 -4 -38 -9z"/>
<path d="M1 188 l-1 -188 178 1 177 1 -55 17 c-81 26 -113 45 -173 104 -58 56
-106 144 -118 212 -3 22 -7 -44 -8 -147z"/>
</g>
</svg>
