<?xml version="1.0" standalone="no"?>
<!DOCTYPE svg PUBLIC "-//W3C//DTD SVG 20010904//EN"
 "http://www.w3.org/TR/2001/REC-SVG-20010904/DTD/svg10.dtd">
<svg version="1.0" xmlns="http://www.w3.org/2000/svg"
 width="88.000000pt" height="87.000000pt" viewBox="0 0 88.000000 87.000000"
 preserveAspectRatio="xMidYMid meet">

<g transform="translate(0.000000,87.000000) scale(0.100000,-0.100000)"
fill="#000000" stroke="none">
<path d="M0 435 l0 -435 440 0 440 0 0 435 0 435 -440 0 -440 0 0 -435z m549
394 c78 -25 96 -34 152 -76 62 -45 113 -114 142 -194 23 -61 25 -199 4 -261
-34 -100 -119 -198 -215 -247 -107 -56 -261 -54 -373 5 -42 21 -159 132 -159
151 0 7 -4 13 -10 13 -5 0 -10 6 -10 13 0 6 -7 26 -16 42 -10 18 -18 66 -21
122 -5 78 -2 102 17 162 13 39 27 71 32 71 4 0 8 6 8 14 0 7 30 42 68 77 62
59 95 79 177 107 42 14 161 14 204 1z"/>
<path d="M335 801 c-81 -29 -116 -50 -164 -101 -94 -96 -128 -207 -105 -340
21 -118 74 -202 167 -262 135 -89 298 -89 432 -3 64 41 95 76 137 150 32 59
33 63 33 180 0 117 -1 121 -33 180 -42 75 -73 109 -137 149 -102 65 -230 83
-330 47z m136 -106 c70 -25 121 -78 140 -147 15 -58 -13 -132 -65 -170 -90
-65 -226 -6 -226 99 0 47 56 103 103 103 49 0 90 -36 90 -78 0 -65 -70 -96
-113 -50 -23 25 -25 39 -8 56 18 18 30 14 19 -6 -11 -20 10 -62 31 -62 21 0
48 33 48 59 -1 79 -100 88 -136 13 -28 -59 0 -113 73 -141 27 -11 37 -10 76 7
117 52 118 210 1 283 -68 41 -175 25 -245 -37 -32 -29 -69 -121 -69 -174 0
-95 67 -199 153 -239 92 -41 151 -50 202 -31 21 8 25 14 20 37 l-6 28 20 -23
c11 -13 25 -20 32 -17 8 5 8 10 0 18 -13 13 -14 27 -2 27 5 0 16 -17 25 -37 9
-21 21 -46 27 -55 7 -13 5 -18 -5 -18 -7 0 -16 9 -19 20 -9 36 -28 23 -21 -15
7 -42 0 -45 -19 -9 -14 26 -16 27 -103 25 -76 -1 -97 2 -141 23 -62 29 -131
95 -158 151 -28 57 -27 175 2 230 40 75 135 143 204 144 14 1 45 -6 70 -14z"/>
</g>
</svg>
