<?xml version="1.0" standalone="no"?>
<!DOCTYPE svg PUBLIC "-//W3C//DTD SVG 20010904//EN"
 "http://www.w3.org/TR/2001/REC-SVG-20010904/DTD/svg10.dtd">
<svg version="1.0" xmlns="http://www.w3.org/2000/svg"
 width="87.000000pt" height="91.000000pt" viewBox="0 0 87.000000 91.000000"
 preserveAspectRatio="xMidYMid meet">

<g transform="translate(0.000000,91.000000) scale(0.100000,-0.100000)"
fill="#000000" stroke="none">
<path d="M0 455 l0 -455 203 1 c141 1 186 4 148 9 -30 5 -78 21 -108 37 -58
29 -163 127 -163 150 0 7 -3 13 -8 13 -20 0 -62 139 -62 205 0 60 29 160 61
212 79 129 209 203 355 203 156 0 303 -89 366 -221 44 -93 48 -108 48 -190 0
-201 -150 -381 -342 -409 -36 -5 17 -8 160 -9 l212 -1 0 455 0 455 -435 0
-435 0 0 -455z"/>
<path d="M335 801 c-70 -18 -132 -55 -184 -109 -68 -70 -84 -98 -107 -196 -21
-89 -12 -159 30 -252 57 -124 213 -224 350 -224 97 0 201 43 275 113 84 81
121 167 121 282 0 159 -85 293 -229 362 -44 20 -74 26 -141 29 -47 2 -98 0
-115 -5z m150 -150 c3 -5 -7 -11 -22 -13 -27 -3 -28 -5 -31 -69 -3 -62 -1 -67
20 -73 l23 -7 -22 -11 c-21 -10 -23 -17 -23 -106 0 -83 2 -93 15 -82 8 7 15
17 15 22 0 5 12 35 26 66 20 44 23 61 15 74 -16 25 -14 30 8 23 16 -5 24 4 45
46 l25 53 -30 29 c-33 31 -33 48 -1 26 49 -35 113 -99 100 -99 -9 0 -21 7 -28
15 -19 23 -28 16 -55 -42 -20 -44 -21 -53 -9 -64 21 -17 17 -30 -8 -24 -19 5
-26 0 -37 -27 -8 -18 -23 -53 -33 -76 -11 -24 -17 -46 -14 -49 2 -3 31 13 64
36 53 35 59 43 55 68 -4 27 -4 27 12 8 15 -19 16 -19 51 0 44 24 49 35 35 76
-10 30 -8 49 5 37 3 -3 16 -37 29 -74 30 -84 32 -128 4 -66 l-20 43 -44 -32
c-38 -27 -43 -35 -34 -51 14 -26 1 -38 -15 -15 -17 22 -23 22 -62 -8 -18 -14
-37 -25 -42 -25 -5 0 -15 -7 -22 -15 -10 -12 -10 -15 4 -15 9 0 16 -4 16 -10
0 -6 -34 -10 -81 -10 -51 0 -78 4 -74 10 3 6 14 10 23 10 9 0 -12 18 -46 40
-33 22 -64 40 -68 40 -4 0 -13 -8 -21 -17 -12 -16 -13 -15 -11 11 3 24 -4 34
-37 57 l-40 28 -15 -32 c-18 -41 -19 -41 -25 -35 -7 6 43 158 56 173 12 12 12
-27 0 -58 -8 -20 -5 -29 12 -45 33 -29 64 -36 75 -16 7 12 11 13 16 5 4 -7 3
-18 -4 -25 -8 -11 3 -23 57 -60 37 -25 69 -42 71 -37 1 4 -8 30 -22 57 -14 27
-30 62 -35 77 -9 22 -15 27 -31 22 -22 -7 -26 5 -9 22 9 9 5 26 -15 68 l-26
56 -27 -21 c-53 -42 -36 -6 22 45 33 30 62 49 64 43 2 -6 -6 -19 -18 -29 -26
-21 -26 -18 1 -79 19 -45 24 -49 47 -43 26 6 26 6 7 -15 -18 -20 -17 -22 8
-76 14 -30 32 -68 39 -83 11 -25 12 -20 15 61 3 94 -1 121 -18 111 -5 -3 -10
1 -10 9 0 9 7 16 15 16 13 0 15 12 13 68 -3 65 -4 67 -30 70 -16 2 -28 8 -28
13 0 12 127 12 135 0z"/>
</g>
</svg>
