<?xml version="1.0" standalone="no"?>
<!DOCTYPE svg PUBLIC "-//W3C//DTD SVG 20010904//EN"
 "http://www.w3.org/TR/2001/REC-SVG-20010904/DTD/svg10.dtd">
<svg version="1.0" xmlns="http://www.w3.org/2000/svg"
 width="87.000000pt" height="87.000000pt" viewBox="0 0 87.000000 87.000000"
 preserveAspectRatio="xMidYMid meet">

<g transform="translate(0.000000,87.000000) scale(0.100000,-0.100000)"
fill="#000000" stroke="none">
<path d="M0 435 l0 -435 435 0 435 0 0 435 0 435 -435 0 -435 0 0 -435z m578
374 c96 -33 186 -116 235 -218 40 -81 44 -226 9 -316 -32 -83 -117 -179 -197
-221 -116 -61 -268 -59 -395 6 -57 29 -156 142 -181 209 -80 205 15 438 219
533 82 39 209 42 310 7z"/>
<path d="M325 801 c-27 -10 -63 -23 -78 -30 -38 -15 -138 -117 -159 -161 -9
-19 -22 -48 -29 -64 -9 -18 -14 -64 -14 -125 1 -86 4 -103 32 -164 38 -81 106
-150 189 -192 54 -27 68 -30 165 -30 100 0 109 2 173 34 112 56 171 125 207
244 24 80 24 150 -2 223 -11 32 -23 67 -26 77 -3 9 -9 17 -14 17 -5 0 -9 6 -9
13 0 7 -19 31 -42 54 -112 107 -269 148 -393 104z m-62 -137 c-107 -53 -102
-131 12 -176 85 -34 151 -42 223 -28 126 24 182 60 182 115 0 37 -29 71 -77
91 -33 14 -38 39 -5 27 105 -39 137 -125 68 -186 -34 -31 -88 -57 -117 -57
-11 0 -19 -7 -19 -15 0 -8 6 -15 13 -15 7 0 26 -13 41 -29 l28 -29 -34 -24
c-39 -30 -96 -58 -115 -58 -9 0 -13 -16 -13 -55 0 -54 0 -55 30 -55 17 0 30
-4 30 -10 0 -5 -13 -10 -30 -10 -25 0 -30 -4 -30 -25 0 -14 -4 -25 -10 -25 -5
0 -10 11 -10 25 0 22 -4 25 -35 25 -44 0 -46 18 -2 22 31 3 32 5 35 51 3 38 0
48 -15 53 -52 17 -77 29 -114 56 -40 29 -40 30 -22 50 10 11 30 27 46 34 30
16 28 34 -5 34 -29 0 -123 56 -142 85 -9 13 -16 33 -16 43 0 28 62 94 101 108
54 18 55 4 2 -22z"/>
<path d="M360 414 c-25 -12 -51 -29 -59 -37 -11 -14 -7 -19 27 -41 22 -14 53
-26 68 -28 29 -3 29 -2 32 53 4 73 -8 83 -68 53z"/>
<path d="M450 369 l0 -69 28 6 c41 11 102 52 97 67 -7 16 -38 35 -86 52 l-39
14 0 -70z"/>
</g>
</svg>
